PathFileType	4	(X/Y/Z)	/Users/niels/Desktop/University/Third Semester/Perception and Action/Exam/Gymnastics Motion Tracking/Code for Gym Tracking/Analyzed Data/Webcam_Backflip/id1_8_trajectory_Sports2D/id1_8_trajectory_Sports2D_px_person00.trc
DataRate	CameraRate	NumFrames	NumMarkers	Units	OrigDataRate	OrigDataStartFrame	OrigNumFrames
29.71698113207547	29.71698113207547	12	22	m	29.71698113207547	13	106
Frame#	Time	Hip			RHip			RKnee			RAnkle			RBigToe			RSmallToe			RHeel			LHip			LKnee			LAnkle			LBigToe			LSmallToe			LHeel			Neck			Head			Nose			RShoulder			RElbow			RWrist			LShoulder			LElbow			LWrist		
		X1	Y1	Z1	X2	Y2	Z2	X3	Y3	Z3	X4	Y4	Z4	X5	Y5	Z5	X6	Y6	Z6	X7	Y7	Z7	X8	Y8	Z8	X9	Y9	Z9	X10	Y10	Z10	X11	Y11	Z11	X12	Y12	Z12	X13	Y13	Z13	X14	Y14	Z14	X15	Y15	Z15	X16	Y16	Z16	X17	Y17	Z17	X18	Y18	Z18	X19	Y19	Z19	X20	Y20	Z20	X21	Y21	Z21	X22	Y22	Z22
13	0.4374603174603174	0.9388851552099111	-0.5816329375627092	0.0	0.9389155525316393	-0.5759170458887316	0.0	0.9855013423520251	-0.7005828607436667	0.0	0.950381058724754	-0.8272905831304675	0.0	0.9969326094674326	-0.8568894986293621	0.0	0.985719835211022	-0.8603167215195203	0.0	0.9361883928187489	-0.8477334328616147	0.0	0.9384582179359552	-0.5738911996579453	0.0	0.9786160777753125	-0.7002327382237815	0.0	0.9533499655810465	-0.8188004226074735	0.0	0.9948010492253001	-0.8501335486263032	0.0	0.9944228540094552	-0.8449318882505639	0.0	0.9387585380232174	-0.8376022902356599	0.0	0.9707149702671751	-0.4136130122330512	0.0	1.014267403226203	-0.33378957677860466	0.0	1.0191378630099028	-0.3862112139130474	0.0	0.9691452506492257	-0.42376841249985664	0.0	1.0602879288452691	-0.4287915143243781	0.0	1.1264267204006975	-0.3977269942637051	0.0	0.957863962048503	-0.41905791203279036	0.0	1.0421877255580778	-0.4308021820800482	0.0	1.1162283495114906	-0.400505704859023	0.0
14	0.47111111111111104	0.9387230316412127	-0.5824580305196185	0.0	0.938267574329815	-0.576370270499976	0.0	0.983484697217612	-0.701646434314715	0.0	0.951240293699726	-0.8290173119463249	0.0	0.9975380721874152	-0.8589318117010366	0.0	0.9859664848997285	-0.8624400790751959	0.0	0.9368563458557264	-0.8499470767260069	0.0	0.9388887095510212	-0.574258218479521	0.0	0.979183057710113	-0.701186847677146	0.0	0.9551056720369862	-0.8199254106950739	0.0	0.995816750869368	-0.8512222488796588	0.0	0.9959717330237978	-0.8466063421537664	0.0	0.940018166234289	-0.8391089106701097	0.0	0.9731302652065418	-0.41388830963300605	0.0	1.0173676958105862	-0.33394777097810063	0.0	1.022247970696826	-0.3864053921755614	0.0	0.9715680512250708	-0.4236694092591657	0.0	1.0641741916129446	-0.42575627783189457	0.0	1.1289291400373764	-0.3924058281203672	0.0	0.9613128348761497	-0.4189345264928599	0.0	1.0463850179740133	-0.42800023190901376	0.0	1.1192439594589307	-0.39575452227932517	0.0
15	0.5047619047619047	0.9393175944341532	-0.5872525316763657	0.0	0.9385498471703961	-0.5807932781189957	0.0	0.9809952181774522	-0.7069215681064743	0.0	0.9518641574599112	-0.8347214998696362	0.0	0.9978952225499704	-0.8646543601887214	0.0	0.9860858999449926	-0.8683057095122992	0.0	0.9374969068220326	-0.8557791010334521	0.0	0.9400283217965018	-0.5786266223758031	0.0	0.9783113375099302	-0.7062451643285265	0.0	0.9561600100276487	-0.8250772683249585	0.0	0.9963864938040626	-0.8561868591029751	0.0	0.9967843398035259	-0.851975124110756	0.0	0.9408600238416527	-0.8443914387583524	0.0	0.9752098704005646	-0.4177434546812645	0.0	1.0194285869182347	-0.33736697205111543	0.0	1.0246580982926412	-0.3899652161560484	0.0	0.9737406998770907	-0.4273143276538344	0.0	1.0672602956364308	-0.42668194696727424	0.0	1.1309091448686364	-0.3914038588024543	0.0	0.9643412121058063	-0.4226743178241887	0.0	1.0497066635663053	-0.42909229079812716	0.0	1.1218632778418673	-0.3952535689785153	0.0
16	0.5384126984126983	0.9407875416589155	-0.5953604926452494	0.0	0.9399914190454902	-0.5886268425197354	0.0	0.978490408450891	-0.715731705843056	0.0	0.9521974091766664	-0.8437785235363601	0.0	0.9976617795266767	-0.8733748175384135	0.0	0.9858188987429414	-0.8772208020334508	0.0	0.9380597659281076	-0.8645457559232691	0.0	0.9418790339734053	-0.586417829222808	0.0	0.9766915872853478	-0.7147872895860978	0.0	0.9566541496763169	-0.8336982231744656	0.0	0.9964695604801828	-0.8643627518876101	0.0	0.9968220597431182	-0.860342595234772	0.0	0.9414455136359352	-0.8528390575702098	0.0	0.9768135050140181	-0.4247663094334519	0.0	1.0203729731689362	-0.34363958520193094	0.0	1.0262778176927316	-0.3964582891878523	0.0	0.975483684849093	-0.43430072619281246	0.0	1.069512757976871	-0.43090635537686506	0.0	1.1322185271857266	-0.3939201542766448	0.0	0.9666607545510643	-0.429802121308006	0.0	1.0521486997652278	-0.43341397185072145	0.0	1.1238675889927194	-0.3981660337708382	0.0
17	0.5720634920634919	0.9431004673263312	-0.6058464296463237	0.0	0.9425903734110368	-0.5990467662523314	0.0	0.9764410188563485	-0.7269764870299652	0.0	0.9523776225429817	-0.8551801616963043	0.0	0.9967059380765452	-0.8839389650183074	0.0	0.9850832789383126	-0.8879962678863708	0.0	0.9386147627041294	-0.875226903141597	0.0	0.9444089930374724	-0.5967919594828427	0.0	0.9750575217147931	-0.7257968570621817	0.0	0.9568326456897054	-0.844816683134735	0.0	0.9962281497302397	-0.8744816695472222	0.0	0.9962044438416713	-0.8704709552829712	0.0	0.9420086609151133	-0.8634869420927909	0.0	0.9778086602210738	-0.43421828871316087	0.0	1.0201940206445346	-0.3521539115676552	0.0	1.0270624494712615	-0.40520703184556706	0.0	0.9765795813357867	-0.4440101635311021	0.0	1.0709563824161252	-0.43758687082033565	0.0	1.1327142360824338	-0.39893740080765283	0.0	0.9680959325540741	-0.4396659627147119	0.0	1.0538402865634129	-0.44015544171882104	0.0	1.1250475120929813	-0.4034504866130561	0.0
18	0.6057142857142856	0.9460829487713787	-0.617556661446655	0.0	0.9460689723748114	-0.6109736704102443	0.0	0.9750727304685465	-0.7393853537166312	0.0	0.9525739462533783	-0.8676746127981012	0.0	0.995130095022158	-0.8949586150509068	0.0	0.9839737072171614	-0.8992190075943877	0.0	0.9392773154075315	-0.8866839077333437	0.0	0.9475912594095055	-0.6086988733730689	0.0	0.9739127444668427	-0.7380387244839772	0.0	0.9569859244136327	-0.8571631528846367	0.0	0.9960048682685133	-0.8850156343301935	0.0	0.9951984585193776	-0.8808603109780009	0.0	0.9428069417641497	-0.8751465981213299	0.0	0.9781234585484883	-0.44508496134655473	0.0	1.0189788092971275	-0.3621264399146642	0.0	1.0270103620213178	-0.4153461407544542	0.0	0.9769195479601199	-0.4555810263142777	0.0	1.0716101192981748	-0.4457941136622943	0.0	1.1322857710451162	-0.40543851570519585	0.0	0.9686066358946503	-0.45139675474730157	0.0	1.0548806892531968	-0.44842102366087144	0.0	1.1252473369928093	-0.4100757270386472	0.0
19	0.6393650793650792	0.9494688824284051	-0.6292207362926288	0.0	0.9499968805834785	-0.6231399021158207	0.0	0.9742848084047264	-0.7516955782375668	0.0	0.9528498486040183	-0.8799268909168005	0.0	0.993199838040609	-0.9051039449427456	0.0	0.9826961163550614	-0.909558238029916	0.0	0.9401019520788169	-0.8978012294795925	0.0	0.9513071266616238	-0.6209040942168728	0.0	0.9733839088738362	-0.7502150540403577	0.0	0.9573120321120115	-0.8693521705082179	0.0	0.9961379508920131	-0.8946105596689764	0.0	0.9941067250590444	-0.8901859563398413	0.0	0.9439499373701019	-0.8865644377712136	0.0	0.977809888873591	-0.456168192132285	0.0	1.016903954244848	-0.37261589811338847	0.0	1.0261710087695106	-0.4258419582487988	0.0	0.9765872538127088	-0.46785437517786244	0.0	1.0714688687240352	-0.45453802533366217	0.0	1.1309292346865338	-0.41250531597576023	0.0	0.9683383346420164	-0.46381419933506474	0.0	1.0552763124903044	-0.4572097753486141	0.0	1.124433764079129	-0.4171257660819391	0.0
20	0.673015873015873	0.952943969875085	-0.6396296931009936	0.0	0.9539367775491705	-0.6342304558256617	0.0	0.9737867366581464	-0.7627219582961565	0.0	0.9531647321556829	-0.8906919571880227	0.0	0.9912476685161791	-0.9134356412858841	0.0	0.9815014667491717	-0.9180707238546899	0.0	0.9410259505357849	-0.9075618182673949	0.0	0.9552278347438946	-0.6320858054519589	0.0	0.9732741563849282	-0.7611044714646298	0.0	0.9577858503891816	-0.8801191093845154	0.0	0.996672903818754	-0.9025050311728083	0.0	0.9931011399672275	-0.8977282695750103	0.0	0.9452421778736806	-0.8966193007358069	0.0	0.9770511815439126	-0.46628394401360934	0.0	1.014237207023687	-0.3825275158133193	0.0	1.0247058994813338	-0.43553284365113626	0.0	0.975837011289307	-0.47944801217232863	0.0	1.0706348462969344	-0.4627795171050071	0.0	1.128895040304481	-0.41927326728402486	0.0	0.9675609064092119	-0.47548297942310086	0.0	1.0549957126559315	-0.46544428892904416	0.0	1.1228128197978562	-0.4237842908566412	0.0
21	0.7066666666666666	0.9561701749434381	-0.6477999979453606	0.0	0.9574939055196323	-0.6430573324981698	0.0	0.9733462413924981	-0.7713980805648024	0.0	0.9534563784278627	-0.8989599025469999	0.0	0.9895800155939102	-0.9194944587782323	0.0	0.9806147234021472	-0.9243053084264771	0.0	0.941915508682467	-0.9151141835363897	0.0	0.958807938385462	-0.6410320585940785	0.0	0.9732491241504708	-0.7696745267597084	0.0	0.9582085244676155	-0.8884833514727989	0.0	0.9972861329003564	-0.9085141808583512	0.0	0.9922031152443607	-0.9033576350152367	0.0	0.9462942951859387	-0.904449425669698	0.0	0.976101092386082	-0.47445305021710693	0.0	1.0113174405500047	-0.39069496735892906	0.0	1.0229182905475174	-0.44327324219475134	0.0	0.9749751553713016	-0.4890082239233922	0.0	1.0694025946892152	-0.46951736883717654	0.0	1.1267143887775886	-0.4248778905834278	0.0	0.9665197168168033	-0.48501139704256313	0.0	1.0540479326147956	-0.47212744614413626	0.0	1.1208430719662794	-0.42928253001605876	0.0
22	0.7403174603174603	0.9588449460093701	-0.6530349269203818	0.0	0.9603595034533896	-0.6487092028593474	0.0	0.9729294161391533	-0.7768986465409683	0.0	0.953678961942436	-0.9040602201206738	0.0	0.9884143371689855	-0.9231335476131038	0.0	0.9801545712799162	-0.9281430702330551	0.0	0.9426134208208256	-0.9198320337100367	0.0	0.9614755752224357	-0.6468087647404726	0.0	0.9730508975982595	-0.7751844808157595	0.0	0.9584076434407485	-0.8937519997869505	0.0	0.9975551758430558	-0.9125846913372696	0.0	0.9914121657881768	-0.90709513505166	0.0	0.9468129357431283	-0.9094160165315661	0.0	0.97519948834706	-0.4799136926913583	0.0	1.008508629916392	-0.3961131095927768	0.0	1.0211601496039435	-0.4481271772210945	0.0	0.9742452496258214	-0.495456970675797	0.0	1.0681192754277633	-0.47393149280720615	0.0	1.1249863512934373	-0.42851121890388755	0.0	0.9653815858788433	-0.4913657393141045	0.0	1.0525108796077023	-0.4764853300588226	0.0	1.1190379065599727	-0.4329218234240494	0.0
23	0.7739682539682539	0.9607770740097928	-0.6548907756982069	0.0	0.9623717391154499	-0.650624152651483	0.0	0.9726571833516534	-0.7787588500132208	0.0	0.9537874963931054	-0.905673634250833	0.0	0.9878385047787807	-0.9243673986056736	0.0	0.9800779625358507	-0.9295723589276492	0.0	0.9429634058607276	-0.9213601070770268	0.0	0.9628807137316941	-0.6488205379563095	0.0	0.9726350989301292	-0.7772186088876415	0.0	0.9583585920940653	-0.8954941739886298	0.0	0.9972623977845684	-0.9145260795707008	0.0	0.9907784032825786	-0.9087966160678251	0.0	0.9467530582954449	-0.9110536374645567	0.0	0.9745077733282564	-0.48209097973927784	0.0	1.0061874331608376	-0.398138003354057	0.0	1.019721797290125	-0.44950197874399994	0.0	0.9737994151782734	-0.4981013527916735	0.0	1.0670496105923866	-0.4754525815912751	0.0	1.1241093720065953	-0.42954824794583135	0.0	0.9642768662224532	-0.4939650748149705	0.0	1.0505685239756628	-0.4779808684714988	0.0	1.11773928325799	-0.4341546609715184	0.0
24	0.8076190476190475	0.9618913083374548	-0.6531556583323114	0.0	0.9635021939285046	-0.6486176010365118	0.0	0.9727020116400521	-0.7768348600220366	0.0	0.9537476817400544	-0.9037112264905174	0.0	0.9878308402905375	-0.9232150563424583	0.0	0.9802335668746276	-0.9285057536944363	0.0	0.9428761299236228	-0.9195822006313469	0.0	0.9630089151776655	-0.6468517309589007	0.0	0.9721684614872208	-0.7755862956939578	0.0	0.9581508734332367	-0.8935491622826115	0.0	0.9964858509374066	-0.9140566858836033	0.0	0.9903916529793892	-0.9081455847948704	0.0	0.9462736949381145	-0.9091153887741515	0.0	0.9741065459541509	-0.4806843884303014	0.0	1.004726276017144	-0.3964868521994243	0.0	1.0188103159776358	-0.44719800664213455	0.0	0.9737047830324961	-0.4966564746891956	0.0	1.0663977519335772	-0.47375028345318887	0.0	1.1241662191566137	-0.4276440414403481	0.0	0.963353361119682	-0.4926088871941625	0.0	1.048616397077192	-0.4762854104767375	0.0	1.1170879859199805	-0.43260915434295616	0.0
